{"glyphs":{"0":{"ha":1183,"x_min":0,"x_max":0,"o":"m 814 490 b 745 634 814 564 786 608 b 591 667 702 659 648 667 b 369 490 481 667 369 637 l 369 423 b 439 279 369 349 396 304 b 591 245 481 254 536 245 b 814 423 703 245 814 275 m 817 912 b 1170 512 1007 871 1170 759 l 1170 401 b 981 60 1170 229 1093 123 b 817 1 930 33 876 14 b 591 -22 743 -16 665 -22 b 366 1 517 -22 439 -16 b 14 401 176 42 14 153 l 14 512 b 203 852 14 684 91 790 b 366 912 252 880 307 899 b 591 935 439 928 517 935 b 817 912 665 935 743 928 "},"1":{"ha":1005,"x_min":0,"x_max":0,"o":"m 692 911 l 692 267 l 991 267 l 991 0 l 14 0 l 14 267 l 336 267 l 336 623 l 58 534 l 58 823 l 336 911 "},"2":{"ha":1183,"x_min":0,"x_max":0,"o":"m 1170 630 b 772 339 1170 440 947 382 b 575 261 677 317 602 294 l 1155 261 l 1155 1 l 14 1 l 14 155 b 555 496 14 363 321 440 b 813 607 699 531 813 559 b 628 674 813 646 755 674 b 385 568 496 673 382 653 l 28 568 b 613 935 28 876 268 935 b 1170 630 964 935 1170 852 "},"3":{"ha":1183,"x_min":0,"x_max":0,"o":"m 1170 655 b 1025 456 1170 564 1118 500 b 1170 257 1118 413 1170 349 b 606 -22 1170 67 964 -22 b 14 343 253 -22 14 39 l 370 343 b 621 248 368 246 481 250 b 813 318 754 248 813 270 b 497 376 813 377 777 376 l 497 536 b 813 594 777 536 813 536 b 621 665 813 642 749 665 b 370 569 481 663 368 666 l 14 569 b 606 934 14 873 253 934 b 1170 655 964 934 1170 846 "},"4":{"ha":1183,"x_min":0,"x_max":0,"o":"m 680 422 l 680 650 l 369 422 m 1036 911 l 1036 422 l 1170 422 l 1170 155 l 1036 155 l 1036 0 l 680 0 l 680 155 l 14 155 l 14 422 l 680 911 "},"5":{"ha":1183,"x_min":0,"x_max":0,"o":"m 497 582 b 1170 279 861 582 1170 557 b 1022 58 1170 184 1120 111 b 606 -22 924 5 785 -22 b 14 343 253 -22 14 39 l 370 343 b 621 248 368 246 481 250 b 813 318 754 248 813 270 b 497 421 813 376 777 421 l 14 421 l 14 423 l 125 912 l 1103 912 l 1103 667 l 425 667 l 406 582 "},"6":{"ha":1183,"x_min":0,"x_max":0,"o":"m 851 311 b 833 345 851 319 849 332 b 689 387 801 368 753 382 b 496 389 625 393 561 394 b 353 372 432 385 385 380 l 332 367 l 332 279 b 610 209 334 263 351 208 b 851 311 667 209 851 216 m 1092 468 b 1170 304 1144 424 1170 369 b 607 -22 1170 156 1072 -22 b 14 337 241 -22 14 38 l 14 553 b 607 912 14 852 241 912 l 1100 912 l 1100 685 l 498 685 b 331 587 449 685 331 675 l 331 564 l 363 570 b 484 581 385 574 425 578 b 688 583 543 585 611 586 b 911 551 764 579 838 569 b 1092 468 983 534 1044 507 "},"7":{"ha":1094,"x_min":0,"x_max":0,"o":"m 14 645 l 14 911 l 1080 911 l 1080 645 l 570 0 l 125 0 l 703 645 "},"8":{"ha":1183,"x_min":0,"x_max":0,"o":"m 591 231 b 803 318 751 231 803 267 b 591 403 803 369 753 403 b 380 318 431 403 380 370 b 591 231 380 265 433 231 m 591 709 b 422 649 453 709 422 687 b 591 589 422 610 452 589 b 761 649 732 589 761 610 b 591 709 761 687 730 709 m 957 513 b 1170 272 1109 472 1170 392 b 591 -22 1170 81 1039 -22 b 14 272 143 -22 14 80 b 227 513 14 392 73 472 b 112 694 150 551 112 612 b 591 934 112 858 242 934 b 1071 694 941 934 1071 857 b 957 513 1071 613 1033 553 "},"9":{"ha":1183,"x_min":0,"x_max":0,"o":"m 332 602 b 351 568 332 593 334 581 b 494 525 382 545 429 531 b 687 523 558 519 623 519 b 831 541 751 528 799 533 l 852 545 l 851 634 b 572 704 851 650 832 704 b 332 602 517 704 332 696 m 91 445 b 14 608 39 489 14 543 b 576 935 14 757 111 935 b 1170 575 942 935 1170 875 l 1170 359 b 576 1 1170 60 942 1 l 83 1 l 83 228 l 685 228 b 852 326 734 228 852 237 l 852 349 l 820 343 b 699 331 799 339 758 335 b 495 330 640 327 572 326 b 271 361 418 333 344 344 b 91 445 199 378 139 406 "}," ":{"ha":678,"x_min":0,"x_max":0,"o":""},"!":{"ha":382,"x_min":0,"x_max":0,"o":"m 369 1000 l 369 400 l 14 400 l 14 1000 m 369 267 l 369 0 l 14 0 l 14 267 "},"\"":{"ha":712,"x_min":0,"x_max":0,"o":"m 454 489 l 387 1000 l 699 1000 l 632 489 m 80 489 l 14 1000 l 325 1000 l 258 489 "},"#":{"ha":1522,"x_min":0,"x_max":0,"o":"m 658 578 l 620 422 l 864 422 l 903 578 m 183 0 l 221 155 l 14 155 l 14 422 l 286 422 l 324 578 l 102 578 l 102 845 l 389 845 l 428 1000 l 761 1000 l 723 845 l 968 845 l 1006 1000 l 1339 1000 l 1301 845 l 1508 845 l 1508 578 l 1236 578 l 1198 422 l 1419 422 l 1419 155 l 1133 155 l 1095 0 l 761 0 l 799 155 l 555 155 l 517 0 "},"$":{"ha":1227,"x_min":0,"x_max":0,"o":"m 376 620 b 514 584 376 593 398 588 l 514 700 b 376 620 401 689 376 648 m 865 313 b 714 357 865 344 844 352 l 714 231 b 865 313 842 244 865 287 m 363 317 b 514 232 363 283 390 247 l 514 365 b 140 438 340 374 216 398 b 27 635 65 478 27 544 b 514 923 27 808 197 907 l 514 1065 l 714 1065 l 714 922 b 1196 627 1013 907 1196 821 l 847 627 b 714 694 847 657 803 680 l 714 576 b 1214 321 1025 562 1214 523 b 714 6 1214 107 1036 18 l 714 -136 l 514 -136 l 514 5 b 14 317 192 18 13 85 "},"%":{"ha":1908,"x_min":0,"x_max":0,"o":"m 965 1000 l 1298 1000 l 943 0 l 609 0 m 1412 279 b 1446 206 1412 244 1423 220 b 1531 188 1465 194 1493 188 b 1650 279 1613 188 1650 216 l 1650 321 b 1616 394 1650 356 1638 380 b 1531 412 1597 406 1569 412 b 1412 321 1449 412 1412 384 m 1390 14 b 1168 265 1270 41 1168 109 l 1168 335 b 1286 549 1168 443 1216 510 b 1390 587 1318 566 1352 578 b 1531 600 1437 595 1484 600 b 1672 587 1577 600 1625 595 b 1894 335 1792 561 1894 490 l 1894 265 b 1775 52 1894 157 1846 90 b 1672 14 1744 35 1710 22 b 1531 0 1625 5 1577 0 b 1390 14 1484 0 1437 5 m 258 680 b 292 606 258 644 269 620 b 376 588 311 594 339 588 b 496 680 458 588 496 616 l 496 721 b 461 794 496 756 484 781 b 376 812 443 806 414 812 b 258 721 294 812 258 784 m 132 949 b 235 987 163 966 198 979 b 376 1000 283 996 330 1000 b 518 987 423 1000 470 996 b 739 735 637 960 741 892 l 739 665 b 621 452 739 557 692 490 b 518 414 589 435 555 422 b 376 400 470 405 423 400 b 235 414 330 400 283 405 b 14 665 115 440 14 510 l 14 735 b 132 949 14 843 61 910 "},"&":{"ha":1227,"x_min":0,"x_max":0,"o":"m 781 402 l 547 402 b 336 317 386 402 336 370 b 547 230 336 264 387 230 b 781 317 707 230 781 266 m 1080 271 b 547 -22 1080 156 995 -22 b 14 271 98 -23 15 157 b 182 513 14 356 27 471 b 68 693 106 551 68 611 b 547 934 68 857 197 934 b 758 920 629 934 700 929 b 1026 693 948 892 1026 818 b 1025 663 1026 683 1025 673 l 736 663 b 547 730 726 692 711 730 b 378 648 409 730 378 687 b 547 577 378 610 407 577 l 758 577 l 1214 577 l 1214 402 l 1080 402 "},"'":{"ha":338,"x_min":0,"x_max":0,"o":"m 80 489 l 14 1000 l 325 1000 l 258 489 "},"(":{"ha":627,"x_min":0,"x_max":0,"o":"m 325 -137 b 14 174 155 -139 12 4 l 14 752 b 325 1063 12 922 155 1065 l 614 1063 l 614 797 l 436 797 b 357 764 406 797 379 786 b 325 686 336 743 325 716 l 325 241 b 357 162 325 210 336 184 b 436 130 379 140 406 130 l 614 130 l 614 -137 "},")":{"ha":627,"x_min":0,"x_max":0,"o":"m 302 -137 l 14 -137 l 14 130 l 191 130 b 270 162 222 130 248 140 b 302 241 292 184 302 210 l 302 686 b 270 764 302 716 292 743 b 191 797 248 786 222 797 l 14 797 l 14 1063 l 302 1063 b 614 752 473 1065 616 922 l 614 174 b 302 -137 616 4 473 -139 "},"*":{"ha":737,"x_min":0,"x_max":0,"o":"m 74 469 l 244 627 l 14 654 l 89 886 l 292 772 l 246 1000 l 491 1000 l 445 772 l 648 886 l 724 654 l 492 627 l 664 469 l 466 326 l 368 536 l 272 326 "},"+":{"ha":1094,"x_min":0,"x_max":0,"o":"m 703 903 l 703 591 l 1080 591 l 1080 325 l 703 325 l 703 14 l 391 14 l 391 325 l 14 325 l 14 591 l 391 591 l 391 903 "},",":{"ha":382,"x_min":0,"x_max":0,"o":"m 80 -267 l 169 0 l 14 0 l 14 267 l 369 267 l 369 0 l 214 -267 "},"-":{"ha":1027,"x_min":0,"x_max":0,"o":"m 1014 589 l 1014 323 l 14 323 l 14 589 "},".":{"ha":382,"x_min":0,"x_max":0,"o":"m 369 267 l 369 0 l 14 0 l 14 267 "},"/":{"ha":783,"x_min":0,"x_max":0,"o":"m 14 -35 l 414 965 l 770 965 l 369 -35 "},":":{"ha":382,"x_min":0,"x_max":0,"o":"m 369 756 l 369 489 l 14 489 l 14 756 m 369 267 l 369 0 l 14 0 l 14 267 "},";":{"ha":382,"x_min":0,"x_max":0,"o":"m 369 756 l 369 490 l 14 490 l 14 756 m 80 -267 l 169 0 l 14 0 l 14 267 l 369 267 l 369 0 l 214 -267 "},"<":{"ha":1094,"x_min":0,"x_max":0,"o":"m 1080 856 l 1080 589 l 547 456 l 1080 323 l 1080 56 l 14 323 l 14 589 "},"=":{"ha":1094,"x_min":0,"x_max":0,"o":"m 1080 800 l 1080 533 l 14 533 l 14 800 m 1080 379 l 1080 113 l 14 113 l 14 379 "},">":{"ha":1094,"x_min":0,"x_max":0,"o":"m 14 856 l 1080 589 l 1080 323 l 14 56 l 14 323 l 547 456 l 14 589 "},"?":{"ha":1116,"x_min":0,"x_max":0,"o":"m 302 678 l 14 678 b 14 701 14 686 14 693 b 74 903 14 770 22 844 b 186 973 99 932 136 955 b 391 1000 237 991 305 1000 l 725 1000 b 1103 701 1069 1000 1103 839 b 911 512 1103 559 1006 536 b 725 334 818 490 725 465 l 369 334 b 693 641 369 572 561 616 b 814 701 762 654 814 667 b 783 757 814 729 804 748 b 669 771 763 766 725 771 l 447 771 b 333 758 391 771 353 766 b 302 701 313 749 302 730 m 369 0 l 369 222 l 725 222 l 725 0 "},"@":{"ha":1294,"x_min":0,"x_max":0,"o":"m 954 452 l 947 460 b 867 525 924 488 897 509 b 764 548 838 541 804 548 b 620 452 636 548 620 520 b 644 379 620 418 625 395 b 764 357 661 364 701 357 b 947 444 844 357 899 389 m 1280 163 l 1014 163 l 1014 294 l 996 273 b 975 252 990 266 983 259 b 872 184 945 224 911 201 b 716 152 823 163 771 152 b 431 241 567 152 479 186 b 369 452 382 296 369 371 b 431 664 369 534 382 609 b 716 753 479 719 567 753 b 975 653 814 753 901 720 b 996 631 983 646 990 639 l 1014 611 l 1014 697 b 889 836 1014 770 959 812 b 767 858 852 847 812 854 b 659 863 722 861 686 863 b 280 686 547 863 280 833 l 280 219 b 636 41 280 71 526 41 l 659 41 l 659 -203 l 636 -203 b 427 -187 569 -203 499 -198 b 224 -132 354 -176 287 -158 b 14 186 103 -82 14 14 l 14 719 b 224 1037 14 890 103 987 b 439 1092 288 1063 359 1081 b 659 1108 518 1103 591 1108 b 1280 734 923 1107 1279 1075 "},"A":{"ha":1428,"x_min":0,"x_max":0,"o":"m 589 378 l 839 378 l 714 647 m 503 911 l 925 911 l 1414 -1 l 1014 -1 l 942 155 l 486 155 l 414 -1 l 14 -1 "},"B":{"ha":1250,"x_min":0,"x_max":0,"o":"m 847 216 b 903 277 878 216 903 247 b 847 338 903 308 878 338 l 369 338 l 369 216 m 369 694 l 369 572 l 781 572 b 836 633 811 572 836 603 b 781 694 836 664 811 694 m 1064 471 b 1236 244 1167 437 1236 359 b 947 -1 1238 85 1104 -1 l 14 -1 l 14 911 l 880 911 b 1170 667 1038 911 1172 825 b 1064 471 1170 579 1129 512 "},"C":{"ha":1270,"x_min":0,"x_max":0,"o":"m 892 378 l 1257 378 b 636 -22 1234 71 964 -22 b 14 423 294 -21 12 78 l 14 490 b 636 935 12 834 294 933 b 1257 534 964 934 1234 842 l 892 534 b 636 645 859 624 758 645 b 370 467 491 643 368 617 l 370 445 b 636 267 368 296 491 269 b 892 378 758 267 860 289 "},"D":{"ha":1272,"x_min":0,"x_max":0,"o":"m 903 455 b 758 622 903 547 850 622 l 369 622 l 369 288 l 758 288 b 903 455 850 288 903 363 m 825 911 b 1259 455 1075 914 1261 704 b 825 -1 1261 208 1075 -4 l 14 -1 l 14 911 "},"E":{"ha":1094,"x_min":0,"x_max":0,"o":"m 14 911 l 1080 911 l 1080 677 l 369 677 l 369 561 l 1080 561 l 1080 350 l 369 350 l 369 233 l 1080 233 l 1080 -1 l 14 -1 "},"F":{"ha":1139,"x_min":0,"x_max":0,"o":"m 14 911 l 1125 911 l 1125 622 l 369 622 l 369 511 l 1036 511 l 1036 244 l 369 244 l 369 -1 l 14 -1 "},"G":{"ha":1266,"x_min":0,"x_max":0,"o":"m 633 501 l 1253 501 l 1253 -22 l 1075 -22 l 1057 120 b 636 -22 951 16 791 -22 b 14 423 293 -20 12 79 l 14 490 b 636 935 12 835 293 934 b 1253 568 952 935 1213 848 l 875 568 b 778 629 852 598 820 618 b 636 646 736 640 688 646 b 369 468 490 644 367 616 l 369 446 b 636 268 367 296 490 270 b 920 345 777 268 866 276 l 633 345 "},"H":{"ha":1272,"x_min":0,"x_max":0,"o":"m 369 312 l 369 1 l 14 1 l 14 912 l 369 912 l 369 601 l 903 601 l 903 912 l 1259 912 l 1259 1 l 903 1 l 903 312 "},"I":{"ha":382,"x_min":0,"x_max":0,"o":"m 369 912 l 369 1 l 14 1 l 14 912 "},"J":{"ha":1272,"x_min":0,"x_max":0,"o":"m 903 911 l 1258 911 l 1258 422 b 635 -22 1258 79 980 -22 b 14 422 293 -21 12 78 l 14 534 l 369 534 l 369 445 b 635 267 367 295 490 269 b 903 445 781 269 905 295 "},"K":{"ha":1339,"x_min":0,"x_max":0,"o":"m 369 312 l 369 1 l 14 1 l 14 912 l 369 912 l 369 601 l 524 601 l 859 912 l 1325 912 l 852 456 l 1325 1 l 859 1 l 524 312 "},"L":{"ha":1094,"x_min":0,"x_max":0,"o":"m 369 912 l 369 290 l 1080 290 l 1080 1 l 14 1 l 14 912 "},"M":{"ha":1628,"x_min":0,"x_max":0,"o":"m 14 912 l 458 912 l 814 456 l 1170 912 l 1614 912 l 1614 1 l 1259 1 l 1259 487 l 903 1 l 725 1 l 369 487 l 369 1 l 14 1 "},"N":{"ha":1272,"x_min":0,"x_max":0,"o":"m 903 912 l 1259 912 l 1259 1 l 859 1 l 369 557 l 369 1 l 14 1 l 14 912 l 503 912 l 903 429 "},"O":{"ha":1272,"x_min":0,"x_max":0,"o":"m 636 935 b 1258 490 979 935 1258 834 l 1258 423 b 636 -22 1259 79 979 -21 b 14 423 293 -21 12 79 l 14 490 b 636 935 12 835 293 934 m 903 468 b 636 646 905 616 781 644 b 369 468 490 644 367 616 l 369 446 b 636 267 367 296 490 269 b 903 446 781 269 905 296 "},"P":{"ha":1250,"x_min":0,"x_max":0,"o":"m 803 489 b 857 511 824 489 842 496 b 880 566 873 527 880 545 b 857 621 880 588 873 606 b 803 644 842 637 824 644 l 369 644 l 369 489 m 892 911 b 1236 566 1080 913 1239 755 b 892 222 1239 378 1080 219 l 369 222 l 369 -1 l 14 -1 l 14 911 "},"Q":{"ha":1272,"x_min":0,"x_max":0,"o":"m 1259 422 b 1073 69 1259 249 1189 137 l 1259 -200 l 880 -200 l 766 -17 b 636 -22 724 -20 680 -22 b 14 422 294 -21 12 77 l 14 489 b 636 934 12 833 294 932 b 1259 489 978 932 1260 833 m 636 267 b 903 444 781 269 905 296 l 903 467 b 636 644 905 616 781 642 b 369 467 490 642 368 616 l 369 444 b 636 267 368 296 490 269 "},"R":{"ha":1250,"x_min":0,"x_max":0,"o":"m 892 911 b 1236 567 1080 913 1239 755 b 1181 380 1236 498 1218 436 b 1038 256 1145 326 1097 283 l 1236 0 l 858 0 l 686 222 l 369 222 l 369 0 l 14 0 l 14 911 m 369 645 l 369 490 l 802 490 b 857 512 824 490 842 497 b 880 567 873 528 880 546 b 802 645 880 610 846 645 "},"S":{"ha":1264,"x_min":0,"x_max":0,"o":"m 386 612 b 640 559 386 572 496 566 b 1251 300 894 547 1251 529 b 632 -22 1251 40 952 -22 b 14 300 313 -21 47 18 l 386 300 b 632 212 427 230 521 212 b 878 300 743 212 878 230 b 625 353 878 340 768 347 b 14 612 370 366 13 384 b 632 935 14 872 312 935 b 1251 612 951 932 1217 897 l 878 612 b 632 701 838 684 743 701 b 386 612 522 701 386 684 "},"T":{"ha":1227,"x_min":0,"x_max":0,"o":"m 436 -1 l 436 622 l 14 622 l 14 911 l 1214 911 l 1214 622 l 791 622 l 791 -1 "},"U":{"ha":1272,"x_min":0,"x_max":0,"o":"m 903 912 l 1259 912 l 1259 422 b 636 -22 1260 78 978 -21 b 14 422 294 -21 12 78 l 14 912 l 369 912 l 369 445 b 636 267 368 295 490 269 b 903 445 781 269 905 295 "},"V":{"ha":1383,"x_min":0,"x_max":0,"o":"m 692 278 l 970 911 l 1370 911 l 903 -1 l 480 -1 l 14 911 l 414 911 "},"W":{"ha":2072,"x_min":0,"x_max":0,"o":"m 1659 911 l 2059 911 l 1659 -1 l 1236 -1 l 1036 455 l 836 -1 l 414 -1 l 14 911 l 414 911 l 625 334 l 836 911 l 1236 911 l 1447 334 "},"X":{"ha":1428,"x_min":0,"x_max":0,"o":"m 970 911 l 1414 911 l 936 455 l 1414 -1 l 970 -1 l 714 266 l 458 -1 l 14 -1 l 492 455 l 14 911 l 458 911 l 714 645 "},"Y":{"ha":1405,"x_min":0,"x_max":0,"o":"m 703 584 l 970 911 l 1392 911 l 880 311 l 880 -1 l 525 -1 l 525 311 l 14 911 l 436 911 "},"Z":{"ha":1205,"x_min":0,"x_max":0,"o":"m 14 622 l 14 911 l 1192 911 l 1192 622 l 570 289 l 1192 289 l 1192 -1 l 14 -1 l 14 289 l 614 622 "},"[":{"ha":627,"x_min":0,"x_max":0,"o":"m 614 131 l 614 -136 l 14 -136 l 14 1065 l 614 1065 l 614 798 l 325 798 l 325 131 "},"\\":{"ha":783,"x_min":0,"x_max":0,"o":"m 770 -35 l 414 -35 l 14 965 l 369 965 "},"]":{"ha":627,"x_min":0,"x_max":0,"o":"m 14 131 l 302 131 l 302 798 l 14 798 l 14 1065 l 614 1065 l 614 -136 l 14 -136 "},"_":{"ha":1428,"x_min":0,"x_max":0,"o":"m 1414 1 l 1414 -244 l 14 -244 l 14 1 "},"a":{"ha":1428,"x_min":0,"x_max":0,"o":"m 589 378 l 839 378 l 714 647 m 503 911 l 925 911 l 1414 -1 l 1014 -1 l 942 155 l 486 155 l 414 -1 l 14 -1 "},"b":{"ha":1250,"x_min":0,"x_max":0,"o":"m 847 216 b 903 277 878 216 903 247 b 847 338 903 308 878 338 l 369 338 l 369 216 m 369 694 l 369 572 l 781 572 b 836 633 811 572 836 603 b 781 694 836 664 811 694 m 1064 471 b 1236 244 1167 437 1236 359 b 947 -1 1238 85 1104 -1 l 14 -1 l 14 911 l 880 911 b 1170 667 1038 911 1172 825 b 1064 471 1170 579 1129 512 "},"c":{"ha":1270,"x_min":0,"x_max":0,"o":"m 892 378 l 1257 378 b 636 -22 1234 71 964 -22 b 14 423 294 -21 12 78 l 14 490 b 636 935 12 834 294 933 b 1257 534 964 934 1234 842 l 892 534 b 636 645 859 624 758 645 b 370 467 491 643 368 617 l 370 445 b 636 267 368 296 491 269 b 892 378 758 267 860 289 "},"d":{"ha":1272,"x_min":0,"x_max":0,"o":"m 903 455 b 758 622 903 547 850 622 l 369 622 l 369 288 l 758 288 b 903 455 850 288 903 363 m 825 911 b 1259 455 1075 914 1261 704 b 825 -1 1261 208 1075 -4 l 14 -1 l 14 911 "},"e":{"ha":1094,"x_min":0,"x_max":0,"o":"m 14 911 l 1080 911 l 1080 677 l 369 677 l 369 561 l 1080 561 l 1080 350 l 369 350 l 369 233 l 1080 233 l 1080 -1 l 14 -1 "},"f":{"ha":1139,"x_min":0,"x_max":0,"o":"m 14 911 l 1125 911 l 1125 622 l 369 622 l 369 511 l 1036 511 l 1036 244 l 369 244 l 369 -1 l 14 -1 "},"g":{"ha":1266,"x_min":0,"x_max":0,"o":"m 633 501 l 1253 501 l 1253 -22 l 1075 -22 l 1057 120 b 636 -22 951 16 791 -22 b 14 423 293 -20 12 79 l 14 490 b 636 935 12 835 293 934 b 1253 568 952 935 1213 848 l 875 568 b 778 629 852 598 820 618 b 636 646 736 640 688 646 b 369 468 490 644 367 616 l 369 446 b 636 268 367 296 490 270 b 920 345 777 268 866 276 l 633 345 "},"h":{"ha":1272,"x_min":0,"x_max":0,"o":"m 369 312 l 369 1 l 14 1 l 14 912 l 369 912 l 369 601 l 903 601 l 903 912 l 1259 912 l 1259 1 l 903 1 l 903 312 "},"i":{"ha":382,"x_min":0,"x_max":0,"o":"m 369 912 l 369 1 l 14 1 l 14 912 "},"j":{"ha":1272,"x_min":0,"x_max":0,"o":"m 903 911 l 1258 911 l 1258 422 b 635 -22 1258 79 980 -22 b 14 422 293 -21 12 78 l 14 534 l 369 534 l 369 445 b 635 267 367 295 490 269 b 903 445 781 269 905 295 "},"k":{"ha":1339,"x_min":0,"x_max":0,"o":"m 369 312 l 369 1 l 14 1 l 14 912 l 369 912 l 369 601 l 524 601 l 859 912 l 1325 912 l 852 456 l 1325 1 l 859 1 l 524 312 "},"l":{"ha":1094,"x_min":0,"x_max":0,"o":"m 369 912 l 369 290 l 1080 290 l 1080 1 l 14 1 l 14 912 "},"m":{"ha":1628,"x_min":0,"x_max":0,"o":"m 14 912 l 458 912 l 814 456 l 1170 912 l 1614 912 l 1614 1 l 1259 1 l 1259 487 l 903 1 l 725 1 l 369 487 l 369 1 l 14 1 "},"n":{"ha":1272,"x_min":0,"x_max":0,"o":"m 903 912 l 1259 912 l 1259 1 l 859 1 l 369 557 l 369 1 l 14 1 l 14 912 l 503 912 l 903 429 "},"o":{"ha":1272,"x_min":0,"x_max":0,"o":"m 636 935 b 1258 490 979 935 1258 834 l 1258 423 b 636 -22 1259 79 979 -21 b 14 423 293 -21 12 79 l 14 490 b 636 935 12 835 293 934 m 903 468 b 636 646 905 616 781 644 b 369 468 490 644 367 616 l 369 446 b 636 267 367 296 490 269 b 903 446 781 269 905 296 "},"p":{"ha":1250,"x_min":0,"x_max":0,"o":"m 803 489 b 857 511 824 489 842 496 b 880 566 873 527 880 545 b 857 621 880 588 873 606 b 803 644 842 637 824 644 l 369 644 l 369 489 m 892 911 b 1236 566 1080 913 1239 755 b 892 222 1239 378 1080 219 l 369 222 l 369 -1 l 14 -1 l 14 911 "},"q":{"ha":1272,"x_min":0,"x_max":0,"o":"m 1259 422 b 1073 69 1259 249 1189 137 l 1259 -200 l 880 -200 l 766 -17 b 636 -22 724 -20 680 -22 b 14 422 294 -21 12 77 l 14 489 b 636 934 12 833 294 932 b 1259 489 978 932 1260 833 m 636 267 b 903 444 781 269 905 296 l 903 467 b 636 644 905 616 781 642 b 369 467 490 642 368 616 l 369 444 b 636 267 368 296 490 269 "},"r":{"ha":1250,"x_min":0,"x_max":0,"o":"m 892 911 b 1236 567 1080 913 1239 755 b 1181 380 1236 498 1218 436 b 1038 256 1145 326 1097 283 l 1236 0 l 858 0 l 686 222 l 369 222 l 369 0 l 14 0 l 14 911 m 369 645 l 369 490 l 802 490 b 857 512 824 490 842 497 b 880 567 873 528 880 546 b 802 645 880 610 846 645 "},"s":{"ha":1264,"x_min":0,"x_max":0,"o":"m 386 612 b 640 559 386 572 496 566 b 1251 300 894 547 1251 529 b 632 -22 1251 40 952 -22 b 14 300 313 -21 47 18 l 386 300 b 632 212 427 230 521 212 b 878 300 743 212 878 230 b 625 353 878 340 768 347 b 14 612 370 366 13 384 b 632 935 14 872 312 935 b 1251 612 951 932 1217 897 l 878 612 b 632 701 838 684 743 701 b 386 612 522 701 386 684 "},"t":{"ha":1227,"x_min":0,"x_max":0,"o":"m 436 -1 l 436 622 l 14 622 l 14 911 l 1214 911 l 1214 622 l 791 622 l 791 -1 "},"u":{"ha":1272,"x_min":0,"x_max":0,"o":"m 903 912 l 1259 912 l 1259 422 b 636 -22 1260 78 978 -21 b 14 422 294 -21 12 78 l 14 912 l 369 912 l 369 445 b 636 267 368 295 490 269 b 903 445 781 269 905 295 "},"v":{"ha":1383,"x_min":0,"x_max":0,"o":"m 692 278 l 970 911 l 1370 911 l 903 -1 l 480 -1 l 14 911 l 414 911 "},"w":{"ha":2072,"x_min":0,"x_max":0,"o":"m 1659 911 l 2059 911 l 1659 -1 l 1236 -1 l 1036 455 l 836 -1 l 414 -1 l 14 911 l 414 911 l 625 334 l 836 911 l 1236 911 l 1447 334 "},"x":{"ha":1428,"x_min":0,"x_max":0,"o":"m 970 911 l 1414 911 l 936 455 l 1414 -1 l 970 -1 l 714 266 l 458 -1 l 14 -1 l 492 455 l 14 911 l 458 911 l 714 645 "},"y":{"ha":1405,"x_min":0,"x_max":0,"o":"m 703 584 l 970 911 l 1392 911 l 880 311 l 880 -1 l 525 -1 l 525 311 l 14 911 l 436 911 "},"z":{"ha":1205,"x_min":0,"x_max":0,"o":"m 14 622 l 14 911 l 1192 911 l 1192 622 l 570 289 l 1192 289 l 1192 -1 l 14 -1 l 14 289 l 614 622 "},"{":{"ha":783,"x_min":0,"x_max":0,"o":"m 236 218 b 197 313 236 256 223 287 b 102 352 171 339 140 352 l 14 352 l 14 452 l 14 552 l 102 552 b 197 591 140 552 171 565 b 236 686 223 617 236 648 l 236 730 b 547 1041 234 900 378 1044 l 770 1041 l 770 774 l 614 774 b 535 742 583 774 557 764 b 503 663 513 720 503 694 b 441 514 503 605 482 555 b 292 452 399 473 350 452 b 441 390 350 452 399 431 b 503 241 482 349 503 299 b 535 162 503 210 513 184 b 614 130 557 140 583 130 l 770 130 l 770 -137 l 547 -137 b 236 174 378 -139 234 4 "},"|":{"ha":382,"x_min":0,"x_max":0,"o":"m 369 1065 l 369 -136 l 14 -136 l 14 1065 "},"}":{"ha":783,"x_min":0,"x_max":0,"o":"m 547 218 l 547 174 b 236 -137 549 4 406 -139 l 14 -137 l 14 130 l 169 130 b 248 162 199 130 226 140 b 280 241 269 184 280 210 b 342 390 280 299 300 349 b 492 452 383 431 433 452 b 342 514 433 452 383 473 b 280 663 300 555 280 605 b 248 742 280 694 269 720 b 169 774 226 764 199 774 l 14 774 l 14 1041 l 236 1041 b 547 730 406 1044 549 900 l 547 686 b 586 591 547 648 560 617 b 680 552 612 565 644 552 l 770 552 l 770 452 l 770 352 l 680 352 b 586 313 644 352 612 339 b 547 218 560 287 547 256 "},"¦":{"ha":382,"x_min":0,"x_max":0,"o":"m 14 598 l 14 1065 l 369 1065 l 369 598 m 369 331 l 369 -136 l 14 -136 l 14 331 "},"©":{"ha":1330,"x_min":0,"x_max":0,"o":"m 833 403 l 1055 403 b 924 224 1045 318 995 260 b 833 191 896 210 865 199 b 665 170 774 177 719 170 b 498 191 612 170 557 177 b 275 429 378 222 275 292 l 275 467 b 408 671 275 568 329 633 b 498 705 435 686 466 697 b 665 726 557 719 612 726 b 833 705 719 726 774 719 b 981 633 890 691 940 667 b 1055 493 1023 600 1048 553 l 833 493 l 825 493 b 776 538 814 514 798 529 b 665 558 741 553 701 558 b 498 454 597 558 498 540 l 498 441 b 555 357 498 399 522 373 b 665 338 590 343 631 338 b 825 403 724 338 799 351 m 908 113 b 1030 162 954 126 994 142 b 1183 413 1132 216 1183 300 l 1183 483 b 908 783 1181 537 1184 707 b 665 814 831 804 751 814 b 422 783 580 814 499 804 l 422 783 l 421 783 b 300 734 376 770 336 753 b 147 483 198 680 147 596 l 147 413 b 422 113 149 359 146 189 b 665 81 498 92 580 81 b 907 113 751 81 831 92 m 1095 45 b 944 -15 1048 20 998 -1 b 665 -52 851 -41 754 -52 b 386 -15 576 -52 479 -41 b 14 413 186 39 14 169 l 14 483 b 235 850 14 663 106 780 b 386 911 281 876 332 897 b 665 948 479 937 576 948 b 944 911 754 948 851 937 b 1316 483 1143 856 1316 728 l 1316 413 b 1095 45 1316 234 1224 116 "},"®":{"ha":1330,"x_min":0,"x_max":0,"o":"m 758 465 b 801 505 782 465 801 483 b 758 545 801 527 782 545 l 529 545 l 529 465 m 998 505 b 888 345 998 434 954 374 l 998 214 l 789 214 l 699 328 l 529 328 l 529 214 l 332 214 l 332 328 l 332 465 l 332 545 l 332 682 l 529 682 l 807 682 b 942 629 860 682 905 664 b 998 505 979 595 998 553 m 1183 483 b 908 783 1181 537 1184 707 b 665 814 831 804 751 814 b 422 783 580 814 499 804 l 422 783 l 421 783 b 300 734 376 770 336 753 b 147 483 198 680 147 596 l 147 413 b 422 113 149 359 146 189 b 665 81 498 92 580 81 b 907 113 751 81 831 92 l 908 113 l 909 113 b 1030 162 954 126 994 142 b 1183 413 1132 216 1183 300 m 1316 413 b 1095 45 1316 234 1224 116 b 944 -15 1048 20 998 -1 b 665 -52 851 -41 754 -52 b 386 -15 576 -52 479 -41 b 14 413 186 39 14 169 l 14 483 b 235 850 14 663 106 780 b 386 911 281 876 332 897 b 665 948 479 937 576 948 b 944 911 754 948 851 937 b 1316 483 1143 856 1316 728 "},"±":{"ha":1094,"x_min":0,"x_max":0,"o":"m 1080 245 l 1080 0 l 14 0 l 14 245 m 391 334 l 391 511 l 14 511 l 14 756 l 391 756 l 391 934 l 703 934 l 703 756 l 1080 756 l 1080 511 l 703 511 l 703 334 "},"×":{"ha":1105,"x_min":0,"x_max":0,"o":"m 307 456 l 14 647 l 159 871 l 552 615 l 946 871 l 1091 647 l 798 456 l 1091 265 l 946 41 l 552 297 l 159 41 l 14 265 "},"÷":{"ha":1094,"x_min":0,"x_max":0,"o":"m 14 325 l 14 591 l 1080 591 l 1080 325 m 703 14 l 391 14 l 391 236 l 703 236 m 391 903 l 703 903 l 703 680 l 391 680 "},"™":{"ha":1628,"x_min":0,"x_max":0,"o":"m 14 758 l 14 912 l 654 912 l 654 758 l 429 758 l 429 426 l 239 426 l 239 758 m 1424 426 l 1424 685 l 1235 426 l 1140 426 l 950 685 l 950 426 l 760 426 l 760 912 l 998 912 l 1187 669 l 1377 912 l 1614 912 l 1614 426 "},"−":{"ha":1094,"x_min":0,"x_max":0,"o":"m 1080 589 l 1080 323 l 14 323 l 14 589 "},"≤":{"ha":1094,"x_min":0,"x_max":0,"o":"m 1080 934 l 1080 722 l 576 623 l 1080 534 l 1080 322 l 14 511 l 14 722 m 1080 245 l 1080 0 l 14 0 l 14 245 "},"≥":{"ha":1094,"x_min":0,"x_max":0,"o":"m 14 934 l 1080 722 l 1080 511 l 14 322 l 14 534 l 517 623 l 14 722 m 14 245 l 1080 245 l 1080 0 l 14 0 "}}}
